<svg width="24" height="22" viewBox="0 0 24 22" fill="none" xmlns="http://www.w3.org/2000/svg">
<path d="M23.7032 10.4222L21.1352 8.60353C20.6699 8.27405 20.0268 8.60956 20.0268 9.18083V10.2932H7.69682C7.30851 10.2932 6.99365 10.6094 6.99365 10.9995C6.99365 11.3897 7.30851 11.7059 7.69682 11.7059H20.0268V12.8181C20.0268 13.3932 20.6733 13.7224 21.1351 13.3954L23.703 11.5768C24.0952 11.2992 24.1031 10.706 23.7032 10.4222Z" fill="#888888"/>
<path d="M20.1784 15.5354C19.8423 15.3402 19.4121 15.4555 19.2176 15.7932C17.5659 18.6616 14.4784 20.5873 10.9502 20.5873C5.68768 20.5873 1.4063 16.2864 1.4063 11C1.4063 5.71357 5.68768 1.4127 10.9502 1.4127C14.4807 1.4127 17.5669 3.34017 19.2176 6.20673C19.412 6.54445 19.8423 6.65967 20.1783 6.46449C20.5145 6.26917 20.6293 5.83704 20.4349 5.49936C18.5352 2.20044 14.9873 0 10.9502 0C4.89798 0 0 4.91975 0 11C0 17.0797 4.89746 22 10.9502 22C14.9891 22 18.5361 19.798 20.435 16.5005C20.6293 16.1629 20.5145 15.7308 20.1784 15.5354Z" fill="#888888"/>
</svg>
